<svg xmlns="http://www.w3.org/2000/svg" viewBox="0 0 48 48" fill="none">
  <rect width="48" height="48" rx="10" fill="#16a34a"/>
  <circle cx="24" cy="19" r="10" fill="#f5d0a9"/>
  <path d="M15 18c1-8 6-11 18-10 1 4 1 8-1 10-3 2-7 2-11 1-3 0-5-1-6-1z" fill="#6b7280"/>
  <path d="M16 23c1 7 5 10 8 10s7-3 8-10c-3 2-10 2-16 0z" fill="#9ca3af"/>
  <circle cx="20" cy="19" r="3" fill="none" stroke="#111" stroke-width="1.5"/>
  <circle cx="28" cy="19" r="3" fill="none" stroke="#111" stroke-width="1.5"/>
  <ellipse cx="36" cy="38" rx="6" ry="4" fill="#facc15" transform="rotate(-12 36 38)"/>
</svg>
